# xmcd
#
# Track frame offsets:
#	182
#	12387
#	25715
#	38070
#	52232
#	64160
#	76400
#	89707
#	103335
#	116450
#
# Disc length: 1676
#
# Revision: 3
# Processed by: cddbd v1.5.1PL0 Copyright (c) Steve Scherf et al.
# Submitted via: audiograbber 1.80.04
# Normalized: r2:DSETVAR1
#
DISCID=84068a0a
DTITLE=Various Artist - Great Country Ladies
DYEAR=1992
DGENRE=Country
TTITLE0=Tammy Wynette - Stand By Your Man
TTITLE1=Lynn Anderson - Rose Garden
TTITLE2=Patsy Cline - Crazy
TTITLE3=Jeannie C. Riley - Harper Valley PTA
TTITLE4=Crystal Gayle - Don't It Make My Brown Eyes Blue
TTITLE5=Dolly Parton - 9 To 5
TTITLE6=Tanya Tucker - Delta Dawn
TTITLE7=Loretta Lynn - Coal Miner's Daughter
TTITLE8=Reba McEntire - You're The First Time I've Thought About Leaving
TTITLE9=Dottie West - Country Sunshine
EXTD=
EXTT0=Tammy Wynette\n
EXTT1=Lynn Anderson\n
EXTT2=Patsy Cline\n
EXTT3=Jeannie Riley\n
EXTT4=Crystal Gayle\n
EXTT5=Dolly Parton\n
EXTT6=Tanya Tucker\n
EXTT7=Loretta Lynn\n
EXTT8=Reba McEntire\n
EXTT9=Dottie West\n
PLAYORDER=
